Coordinates
version=1
nRows=14
nColumns=40
inDegrees=yes

Units are S.I. units (second, meters, Newtons, ...)
If the header above contains a line with 'inDegrees', this indicates whether rotational values are in degrees (yes) or radians (no).

endheader
time	pelvis_tilt	pelvis_list	pelvis_rotation	pelvis_tx	pelvis_ty	pelvis_tz	hip_flexion_r	hip_adduction_r	hip_rotation_r	knee_angle_r	knee_angle_r_beta	ankle_angle_r	subtalar_angle_r	mtp_angle_r	hip_flexion_l	hip_adduction_l	hip_rotation_l	knee_angle_l	knee_angle_l_beta	ankle_angle_l	subtalar_angle_l	mtp_angle_l	lumbar_extension	lumbar_bending	lumbar_rotation	arm_flex_r	arm_add_r	arm_rot_r	elbow_flex_r	pro_sup_r	wrist_flex_r	wrist_dev_r	arm_flex_l	arm_add_l	arm_rot_l	elbow_flex_l	pro_sup_l	wrist_flex_l	wrist_dev_l
      1.02800000	     20.62491660	      3.14343210	      4.40459954	      1.50378288	      0.97964425	     -0.31784529	      1.61531283	     -7.17046369	    -11.27845966	     32.67160063	      0.57022700	     -6.61215073	      0.00000000	      0.00000000	    -28.52673283	      4.64189884	      5.72797203	      7.71561398	      0.13466287	     -5.88737176	      0.00000000	      0.00000000	    -33.15569022	     -0.78898771	     -8.32025066	     -2.21470024	    -17.69472930	      8.67669025	     40.41529734	     76.71105369	      0.00000000	      0.00000000	      7.94384745	    -26.49869695	     23.66492425	     56.56478851	     75.57581204	      0.00000000	      0.00000000
      1.03200000	     20.48245963	      3.24759257	      4.36559439	      1.50803138	      0.97869831	     -0.31791383	      2.29639130	     -7.33034680	    -11.46863281	     31.96576853	      0.55790791	     -6.62608901	      0.00000000	      0.00000000	    -28.71025302	      4.74864899	      5.60792380	      7.63807123	      0.13330949	     -5.79061976	      0.00000000	      0.00000000	    -33.19157700	     -0.87619387	     -8.42100948	     -2.14901971	    -17.73989582	      8.64373223	     40.43165482	     76.68173417	      0.00000000	      0.00000000	      8.33349587	    -26.58899702	     23.65938932	     56.77699448	     75.59618978	      0.00000000	      0.00000000
      1.03600000	     20.16489428	      3.49328814	      4.34598808	      1.51355732	      0.97754891	     -0.31799761	      2.79646665	     -7.55085855	    -11.56397714	     30.62046797	      0.53442798	     -7.03486707	      0.00000000	      0.00000000	    -28.83000685	      4.99581093	      5.47604820	      7.52132313	      0.13127185	     -5.61092036	      0.00000000	      0.00000000	    -32.85363863	     -1.13398876	     -8.60475447	     -2.31013830	    -17.69213977	      8.48191200	     40.28451505	     76.58549454	      0.00000000	      0.00000000	      8.42971027	    -26.76940344	     23.87163460	     57.00081475	     75.65719054	      0.00000000	      0.00000000
      1.04000000	     20.00122360	      3.54849251	      4.41771093	      1.51786895	      0.97678925	     -0.31794205	      3.18263840	     -7.50599200	    -11.62146682	     29.17773946	      0.50924762	     -7.82120424	      0.00000000	      0.00000000	    -28.99748563	      4.98949633	      5.78429446	      7.46947551	      0.13036694	     -5.57514250	      0.00000000	      0.00000000	    -32.84221255	     -1.15597595	     -8.71241877	     -2.23008450	    -17.58148713	      8.19036909	     40.08346123	     76.35038896	      0.00000000	      0.00000000	      8.89303723	    -26.86916646	     24.05529223	     57.10217006	     75.76744815	      0.00000000	      0.00000000
      1.04400000	     19.73474253	      3.69464992	      4.36505145	      1.52277554	      0.97552429	     -0.31803836	      3.83248148	     -7.69057630	    -11.86320565	     28.21835290	      0.49250317	     -7.90667407	      0.00000000	      0.00000000	    -29.08446096	      5.16870566	      5.60373531	      7.43961054	      0.12984570	     -5.37420376	      0.00000000	      0.00000000	    -32.64706180	     -1.30508687	     -8.80414940	     -2.26407894	    -17.59283552	      7.99523740	     39.96685554	     76.19890159	      0.00000000	      0.00000000	      9.11181751	    -26.98383521	     24.13567962	     57.33659940	     75.80977183	      0.00000000	      0.00000000
      1.04800000	     19.45493411	      3.85571523	      4.30265599	      1.52765483	      0.97425570	     -0.31799610	      4.46833277	     -7.84502871	    -12.03672484	     27.19647666	      0.47466806	     -8.05564540	      0.00000000	      0.00000000	    -29.14220297	      5.35669815	      5.48331687	      7.43055029	      0.12968757	     -5.17106009	      0.00000000	      0.00000000	    -32.44234041	     -1.49643978	     -8.87691978	     -2.29288731	    -17.57198382	      7.89458040	     39.84619906	     76.08550896	      0.00000000	      0.00000000	      9.38059760	    -27.07189953	     24.22501263	     57.51723747	     75.83333039	      0.00000000	      0.00000000
      1.05200000	     19.25437488	      3.99052317	      4.34385498	      1.53212794	      0.97321890	     -0.31791403	      4.90489886	     -7.87405091	    -11.99892145	     25.88496140	      0.45177780	     -8.63423020	      0.00000000	      0.00000000	    -29.21121832	      5.46225036	      5.33379437	      7.49440828	      0.13080210	     -4.94394655	      0.00000000	      0.00000000	    -32.38142327	     -1.60885127	     -9.04617787	     -2.20319636	    -17.49195231	      7.74795005	     39.69191002	     75.84654444	      0.00000000	      0.00000000	      9.75002164	    -27.20564409	     24.35870243	     57.59107157	     75.84241255	      0.00000000	      0.00000000
      1.05600000	     18.98422908	      4.09948699	      4.27062462	      1.53710392	      0.97185696	     -0.31780500	      5.55872951	     -7.98013224	    -12.26760561	     24.94589501	      0.43538800	     -8.70321558	      0.00000000	      0.00000000	    -29.25014457	      5.59567774	      5.14388138	      7.55297610	      0.13182430	     -4.73856592	      0.00000000	      0.00000000	    -32.16721303	     -1.75930534	     -9.06893108	     -2.23454889	    -17.48898832	      7.68644687	     39.55039373	     75.74759440	      0.00000000	      0.00000000	      9.99695269	    -27.24657417	     24.39353969	     57.75595109	     75.85272629	      0.00000000	      0.00000000
      1.06000000	     18.83969257	      4.09935261	      4.32371981	      1.54149051	      0.97081910	     -0.31744342	      5.90026418	     -7.80414006	    -12.24817542	     23.54481468	      0.41093454	     -9.29206437	      0.00000000	      0.00000000	    -29.32377984	      5.51202084	      5.22647599	      7.74922674	      0.13524952	     -4.44883775	      0.00000000	      0.00000000	    -32.16549727	     -1.76505467	     -9.13227355	     -2.12335095	    -17.34972875	      7.47153895	     39.31318801	     75.43769732	      0.00000000	      0.00000000	     10.34211557	    -27.50688430	     24.67491064	     58.03159221	     75.81216596	      0.00000000	      0.00000000
      1.06400000	     18.59711561	      4.18255312	      4.31043096	      1.54625420	      0.96957741	     -0.31729700	      6.44000262	     -7.80401693	    -12.35065160	     22.44164277	      0.39168056	     -9.51167381	      0.00000000	      0.00000000	    -29.35385520	      5.57975411	      5.08777876	      7.85618898	      0.13711636	     -4.19177074	      0.00000000	      0.00000000	    -32.01438756	     -1.84085947	     -9.20955969	     -2.07699223	    -17.31449566	      7.40944820	     39.15514388	     75.22940523	      0.00000000	      0.00000000	     10.69266516	    -27.49166138	     24.63901495	     57.97484009	     75.81075901	      0.00000000	      0.00000000
      1.06800000	     18.29886868	      4.35789651	      4.18696177	      1.55125818	      0.96803207	     -0.31719214	      7.12397672	     -7.94362405	    -12.48989905	     21.56176084	      0.37632372	     -9.46746218	      0.00000000	      0.00000000	    -29.35430702	      5.81048048	      4.92778429	      7.95152946	      0.13878037	     -3.96626687	      0.00000000	      0.00000000	    -31.76699251	     -2.07240328	     -9.25581636	     -2.03953630	    -17.29328293	      7.34993796	     38.98365137	     75.17136581	      0.00000000	      0.00000000	     10.89299077	    -27.56287689	     24.66564266	     58.13513686	     75.83417195	      0.00000000	      0.00000000
      1.07200000	     18.12356307	      4.41682405	      4.18588983	      1.55560712	      0.96687454	     -0.31666716	      7.50982971	     -7.80468131	    -12.31290585	     20.25050780	      0.35343804	     -9.95610879	      0.00000000	      0.00000000	    -29.39765351	      5.82172067	      4.89095697	      8.10346142	      0.14143208	     -3.71197806	      0.00000000	      0.00000000	    -31.73862489	     -2.15963062	     -9.32781011	     -1.86578812	    -17.15697004	      7.23023070	     38.68331373	     75.00196101	      0.00000000	      0.00000000	     11.22107104	    -27.82000981	     24.90242526	     58.35909984	     75.77436181	      0.00000000	      0.00000000
      1.07600000	     17.91258225	      4.49667957	      4.02613868	      1.56048306	      0.96551859	     -0.31645030	      8.04326663	     -7.75697594	    -12.21727002	     19.21836749	      0.33542379	    -10.24802146	      0.00000000	      0.00000000	    -29.41211307	      5.95641509	      4.60285244	      8.31835145	      0.14518262	     -3.45339798	      0.00000000	      0.00000000	    -31.60389961	     -2.29712923	     -9.27126656	     -1.79595291	    -17.14585032	      7.16560109	     38.49696247	     74.86261584	      0.00000000	      0.00000000	     11.49496035	    -27.85024949	     24.95563028	     58.43717183	     75.73464208	      0.00000000	      0.00000000
      1.08000000	     17.65325474	      4.57314743	      3.96731707	      1.56535184	      0.96405098	     -0.31599157	      8.64868695	     -7.70162655	    -12.31719946	     18.33086051	      0.31993387	    -10.33443867	      0.00000000	      0.00000000	    -29.43406699	      6.02864253	      4.49196984	      8.41845170	      0.14692970	     -3.16192499	      0.00000000	      0.00000000	    -31.42322247	     -2.43472101	     -9.32084815	     -1.69784251	    -17.04178960	      7.09348629	     38.25951377	     74.78665945	      0.00000000	      0.00000000	     11.77447037	    -27.85444649	     24.80955038	     58.35475202	     75.73714352	      0.00000000	      0.00000000
